<svg fill="none" height="196" viewBox="0 0 1229 196" width="1229" xmlns="http://www.w3.org/2000/svg"><path d="m145.316 53.192v90.016c0 19.256.464 29.232 2.088 47.792h-35.96c1.624-18.56 2.088-28.536 2.088-47.792v-42.92h-79.5759v42.92c0 19.256.464 29.232 2.088 47.792h-35.9599837c1.6240037-18.56 2.0880037-28.536 2.0880037-47.792v-90.016c0-19.256-.464-29.232-2.0880037-47.792h35.9599837c-1.624 18.56-2.088 28.536-2.088 47.792v42.92h79.5759v-42.92c0-19.256-.464-29.232-2.088-47.792h35.96c-1.624 18.56-2.088 28.536-2.088 47.792zm61.469 137.808h-35.96c1.624-18.56 2.088-28.536 2.088-47.792v-90.016c0-19.256-.464-29.232-2.088-47.792h35.96c-1.624 18.56-2.088 28.536-2.088 47.792v90.016c0 19.256.464 29.232 2.088 47.792zm143.721-43.616c11.6 29.696 21.808 39.672 42.92 39.672v3.944c-41.528 0-64.032-7.656-75.632-41.992-12.76-37.12-24.36-43.848-47.328-43.848h-6.496v38.048c0 19.256.464 29.232 2.088 47.792h-35.96c1.624-18.56 2.088-28.536 2.088-47.792v-90.016c0-19.256-.464-29.232-2.088-47.792h50.576c43.152 0 80.968 8.816 80.968 49.88 0 35.032-27.608 46.632-62.408 49.184 21.576 3.944 39.904 14.848 51.272 42.92zm-86.536-137.576v90.944h16.472c25.288 0 48.952-9.28 48.952-45.472s-23.664-45.472-48.952-45.472zm226.327 185.832c-61.248 0-107.184-38.512-107.184-97.44 0-58.696 45.936-97.440012 107.184-97.440012 60.784 0 106.952 38.744012 106.952 97.440012 0 58.928-46.168 97.44-106.952 97.44zm0-4.408c46.632 0 72.616-44.08 72.616-93.032 0-48.72-25.984-93.03201-72.616-93.03201-47.096 0-72.848 44.31201-72.848 93.03201 0 48.952 25.752 93.032 72.848 93.032zm242.153-.232h-116.464c1.856-18.56 2.552-28.536 2.552-47.792v-90.016c0-19.256-.696-29.232-2.552-47.792h118.552l-12.064 16.008c-19.256-9.976-40.136-11.6-51.968-11.6h-20.416v80.968h13.688c12.296 0 24.824 0 46.4-2.32v9.048c-21.576-2.32-34.104-2.32-46.4-2.32h-13.688v91.408h22.968c23.664 0 38.512-1.392 67.048-11.136zm126.4 0h-35.96c1.624-18.56 2.088-28.536 2.088-47.792v-90.016c0-19.256-.464-29.232-2.088-47.792h35.96c-1.624 18.56-2.088 28.536-2.088 47.792v90.016c0 19.256.464 29.232 2.088 47.792zm109.589 0h-35.96c1.624-18.56 2.088-28.536 2.088-47.792v-133.4h-2.784c-11.832 0-28.536 1.624-48.024 11.6l-12.064-16.008h157.525l-12.06 16.008c-19.489-9.976-36.193-11.6-48.025-11.6h-2.784v133.4c0 19.256.464 29.232 2.088 47.792zm152.851 4.64c-61.25 0-107.18-38.512-107.18-97.44 0-58.696 45.93-97.440012 107.18-97.440012 60.79 0 106.95 38.744012 106.95 97.440012 0 58.928-46.16 97.44-106.95 97.44zm0-4.408c46.63 0 72.62-44.08 72.62-93.032 0-48.72-25.99-93.03201-72.62-93.03201-47.09 0-72.85 44.31201-72.85 93.03201 0 48.952 25.76 93.032 72.85 93.032z" fill="#adf950"/></svg>