<svg width="1230" height="196" viewBox="0 0 1230 196" fill="none" xmlns="http://www.w3.org/2000/svg">
<g clip-path="url(#clip0_1234_3482)">
<mask id="path-1-outside-1_1234_3482" maskUnits="userSpaceOnUse" x="1015" y="1" width="215" height="196" fill="black">
<rect fill="white" x="1015" y="1" width="215" height="196"/>
<path d="M1122.14 195.621C1061.15 195.621 1015.4 157.269 1015.4 98.5867C1015.4 40.1352 1061.15 1.55265 1122.14 1.55265C1182.67 1.55265 1228.65 40.1352 1228.65 98.5867C1228.65 157.269 1182.67 195.621 1122.14 195.621ZM1122.14 191.231C1168.58 191.231 1194.46 147.335 1194.46 98.5867C1194.46 50.0697 1168.58 5.94228 1122.14 5.94228C1075.24 5.94228 1049.6 50.0697 1049.6 98.5867C1049.6 147.335 1075.24 191.231 1122.14 191.231Z"/>
</mask>
<path d="M1122.14 195.621C1061.15 195.621 1015.4 157.269 1015.4 98.5867C1015.4 40.1352 1061.15 1.55265 1122.14 1.55265C1182.67 1.55265 1228.65 40.1352 1228.65 98.5867C1228.65 157.269 1182.67 195.621 1122.14 195.621ZM1122.14 191.231C1168.58 191.231 1194.46 147.335 1194.46 98.5867C1194.46 50.0697 1168.58 5.94228 1122.14 5.94228C1075.24 5.94228 1049.6 50.0697 1049.6 98.5867C1049.6 147.335 1075.24 191.231 1122.14 191.231Z" fill="url(#paint0_linear_1234_3482)"/>
<path d="M1122.14 195.621V195.221C1091.73 195.221 1065.14 185.659 1046.17 168.81C1027.19 151.965 1015.8 127.817 1015.8 98.5867H1015.4H1015C1015 128.039 1026.49 152.407 1045.64 169.409C1064.78 186.406 1091.56 196.021 1122.14 196.021V195.621ZM1015.4 98.5867H1015.8C1015.8 69.4722 1027.19 45.3235 1046.17 28.4493C1065.14 11.5714 1091.73 1.95265 1122.14 1.95265V1.55265V1.15265C1091.56 1.15265 1064.78 10.8251 1045.64 27.8515C1026.49 44.8814 1015 69.2497 1015 98.5867H1015.4ZM1122.14 1.55265V1.95265C1152.32 1.95265 1178.85 11.5711 1197.83 28.4493C1216.8 45.3239 1228.25 69.4728 1228.25 98.5867H1228.65H1229.05C1229.05 69.2491 1217.51 44.881 1198.36 27.8515C1179.22 10.8255 1152.49 1.15265 1122.14 1.15265V1.55265ZM1228.65 98.5867H1228.25C1228.25 127.816 1216.8 151.965 1197.83 168.81C1178.85 185.66 1152.32 195.221 1122.14 195.221V195.621V196.021C1152.49 196.021 1179.22 186.406 1198.36 169.409C1217.51 152.408 1229.05 128.039 1229.05 98.5867H1228.65ZM1122.14 191.231V191.631C1145.5 191.631 1163.7 180.583 1176.04 163.423C1188.37 146.273 1194.86 123.026 1194.86 98.5867H1194.46H1194.06C1194.06 122.896 1187.6 145.97 1175.39 162.956C1163.18 179.931 1145.22 190.831 1122.14 190.831V191.231ZM1194.46 98.5867H1194.86C1194.86 74.2629 1188.37 51.0153 1176.04 33.8373C1163.7 16.6492 1145.51 5.54228 1122.14 5.54228V5.94228V6.34228C1145.22 6.34228 1163.18 17.299 1175.39 34.3039C1187.6 51.3188 1194.06 74.3935 1194.06 98.5867H1194.46ZM1122.14 5.94228V5.54228C1098.55 5.54228 1080.3 16.6482 1067.96 33.8373C1055.62 51.0158 1049.2 74.2636 1049.2 98.5867H1049.6H1050C1050 74.3927 1056.39 51.3183 1068.61 34.3039C1080.81 17.3001 1098.84 6.34228 1122.14 6.34228V5.94228ZM1049.6 98.5867H1049.2C1049.2 123.025 1055.62 146.273 1067.96 163.423C1080.3 180.584 1098.55 191.631 1122.14 191.631V191.231V190.831C1098.83 190.831 1080.81 179.93 1068.61 162.956C1056.39 145.971 1050 122.896 1050 98.5867H1049.6Z" fill="#F668B4" fill-opacity="0.6" mask="url(#path-1-outside-1_1234_3482)"/>
<mask id="path-3-outside-2_1234_3482" maskUnits="userSpaceOnUse" x="0" y="4" width="149" height="187" fill="black">
<rect fill="white" y="4" width="149" height="187"/>
<path d="M146.027 52.192V142.208C146.027 161.464 146.491 171.44 148.115 190H112.155C113.779 171.44 114.243 161.464 114.243 142.208V99.288H34.6667V142.208C34.6667 161.464 35.1307 171.44 36.7547 190H0.794681C2.41868 171.44 2.88268 161.464 2.88268 142.208V52.192C2.88268 32.936 2.41868 22.96 0.794681 4.39999H36.7547C35.1307 22.96 34.6667 32.936 34.6667 52.192V95.112H114.243V52.192C114.243 32.936 113.779 22.96 112.155 4.39999H148.115C146.491 22.96 146.027 32.936 146.027 52.192Z"/>
</mask>
<path d="M146.027 52.192V142.208C146.027 161.464 146.491 171.44 148.115 190H112.155C113.779 171.44 114.243 161.464 114.243 142.208V99.288H34.6667V142.208C34.6667 161.464 35.1307 171.44 36.7547 190H0.794681C2.41868 171.44 2.88268 161.464 2.88268 142.208V52.192C2.88268 32.936 2.41868 22.96 0.794681 4.39999H36.7547C35.1307 22.96 34.6667 32.936 34.6667 52.192V95.112H114.243V52.192C114.243 32.936 113.779 22.96 112.155 4.39999H148.115C146.491 22.96 146.027 32.936 146.027 52.192Z" fill="url(#paint1_linear_1234_3482)"/>
<path d="M148.115 190V190.4H148.551L148.513 189.965L148.115 190ZM112.155 190L111.756 189.965L111.718 190.4H112.155V190ZM114.243 99.288H114.643V98.888H114.243V99.288ZM34.6667 99.288V98.888H34.2667V99.288H34.6667ZM36.7547 190V190.4H37.1912L37.1532 189.965L36.7547 190ZM0.794681 190L0.396204 189.965L0.358153 190.4H0.794681V190ZM0.794681 4.39999V3.99999H0.358153L0.396204 4.43485L0.794681 4.39999ZM36.7547 4.39999L37.1532 4.43485L37.1912 3.99999H36.7547V4.39999ZM34.6667 95.112H34.2667V95.512H34.6667V95.112ZM114.243 95.112V95.512H114.643V95.112H114.243ZM112.155 4.39999V3.99999H111.718L111.756 4.43485L112.155 4.39999ZM148.115 4.39999L148.513 4.43485L148.551 3.99999H148.115V4.39999ZM146.027 52.192H145.627V142.208H146.027H146.427V52.192H146.027ZM146.027 142.208H145.627C145.627 161.476 146.091 171.464 147.716 190.035L148.115 190L148.513 189.965C146.89 171.416 146.427 161.452 146.427 142.208H146.027ZM148.115 190V189.6H112.155V190V190.4H148.115V190ZM112.155 190L112.553 190.035C114.178 171.464 114.643 161.476 114.643 142.208H114.243H113.843C113.843 161.452 113.379 171.416 111.756 189.965L112.155 190ZM114.243 142.208H114.643V99.288H114.243H113.843V142.208H114.243ZM114.243 99.288V98.888H34.6667V99.288V99.688H114.243V99.288ZM34.6667 99.288H34.2667V142.208H34.6667H35.0667V99.288H34.6667ZM34.6667 142.208H34.2667C34.2667 161.476 34.7312 171.464 36.3562 190.035L36.7547 190L37.1532 189.965C35.5302 171.416 35.0667 161.452 35.0667 142.208H34.6667ZM36.7547 190V189.6H0.794681V190V190.4H36.7547V190ZM0.794681 190L1.19316 190.035C2.81815 171.464 3.28268 161.476 3.28268 142.208H2.88268H2.48268C2.48268 161.452 2.01921 171.416 0.396204 189.965L0.794681 190ZM2.88268 142.208H3.28268V52.192H2.88268H2.48268V142.208H2.88268ZM2.88268 52.192H3.28268C3.28268 32.9241 2.81815 22.9364 1.19316 4.36512L0.794681 4.39999L0.396204 4.43485C2.01921 22.9835 2.48268 32.9479 2.48268 52.192H2.88268ZM0.794681 4.39999V4.79999H36.7547V4.39999V3.99999H0.794681V4.39999ZM36.7547 4.39999L36.3562 4.36512C34.7312 22.9364 34.2667 32.9241 34.2667 52.192H34.6667H35.0667C35.0667 32.9479 35.5302 22.9835 37.1532 4.43485L36.7547 4.39999ZM34.6667 52.192H34.2667V95.112H34.6667H35.0667V52.192H34.6667ZM34.6667 95.112V95.512H114.243V95.112V94.712H34.6667V95.112ZM114.243 95.112H114.643V52.192H114.243H113.843V95.112H114.243ZM114.243 52.192H114.643C114.643 32.9241 114.178 22.9364 112.553 4.36512L112.155 4.39999L111.756 4.43485C113.379 22.9835 113.843 32.9479 113.843 52.192H114.243ZM112.155 4.39999V4.79999H148.115V4.39999V3.99999H112.155V4.39999ZM148.115 4.39999L147.716 4.36512C146.091 22.9364 145.627 32.9241 145.627 52.192H146.027H146.427C146.427 32.9479 146.89 22.9835 148.513 4.43485L148.115 4.39999Z" fill="#1385D6" fill-opacity="0.6" mask="url(#path-3-outside-2_1234_3482)"/>
<path d="M146.316 53.192V143.208C146.316 162.464 146.78 172.44 148.404 191H112.444C114.068 172.44 114.532 162.464 114.532 143.208V100.288H34.9561V143.208C34.9561 162.464 35.4201 172.44 37.0441 191H1.08412C2.70812 172.44 3.17212 162.464 3.17212 143.208V53.192C3.17212 33.936 2.70812 23.96 1.08412 5.4H37.0441C35.4201 23.96 34.9561 33.936 34.9561 53.192V96.112H114.532V53.192C114.532 33.936 114.068 23.96 112.444 5.4H148.404C146.78 23.96 146.316 33.936 146.316 53.192ZM207.785 191H171.825C173.449 172.44 173.913 162.464 173.913 143.208V53.192C173.913 33.936 173.449 23.96 171.825 5.4H207.785C206.161 23.96 205.697 33.936 205.697 53.192V143.208C205.697 162.464 206.161 172.44 207.785 191ZM351.506 147.384C363.106 177.08 373.314 187.056 394.426 187.056V191C352.898 191 330.394 183.344 318.794 149.008C306.034 111.888 294.434 105.16 271.466 105.16H264.97V143.208C264.97 162.464 265.434 172.44 267.058 191H231.098C232.722 172.44 233.186 162.464 233.186 143.208V53.192C233.186 33.936 232.722 23.96 231.098 5.4H281.674C324.826 5.4 362.642 14.216 362.642 55.28C362.642 90.312 335.034 101.912 300.234 104.464C321.81 108.408 340.138 119.312 351.506 147.384ZM264.97 9.808V100.752H281.442C306.73 100.752 330.394 91.472 330.394 55.28C330.394 19.088 306.73 9.808 281.442 9.808H264.97ZM491.297 195.64C430.049 195.64 384.113 157.128 384.113 98.2C384.113 39.504 430.049 0.759988 491.297 0.759988C552.081 0.759988 598.249 39.504 598.249 98.2C598.249 157.128 552.081 195.64 491.297 195.64ZM491.297 191.232C537.929 191.232 563.913 147.152 563.913 98.2C563.913 49.48 537.929 5.16799 491.297 5.16799C444.201 5.16799 418.449 49.48 418.449 98.2C418.449 147.152 444.201 191.232 491.297 191.232ZM733.45 191H616.986C618.842 172.44 619.538 162.464 619.538 143.208V53.192C619.538 33.936 618.842 23.96 616.986 5.4H735.538L723.474 21.408C704.218 11.432 683.338 9.808 671.506 9.808H651.09V90.776H664.778C677.074 90.776 689.602 90.776 711.178 88.456V97.504C689.602 95.184 677.074 95.184 664.778 95.184H651.09V186.592H674.058C697.722 186.592 712.57 185.2 741.106 175.456L733.45 191ZM859.85 191H823.89C825.514 172.44 825.978 162.464 825.978 143.208V53.192C825.978 33.936 825.514 23.96 823.89 5.4H859.85C858.226 23.96 857.762 33.936 857.762 53.192V143.208C857.762 162.464 858.226 172.44 859.85 191ZM969.439 191H933.479C935.103 172.44 935.567 162.464 935.567 143.208V9.808H932.783C920.951 9.808 904.247 11.432 884.759 21.408L872.695 5.4H1030.22L1018.16 21.408C998.671 11.432 981.967 9.808 970.135 9.808H967.351V143.208C967.351 162.464 967.815 172.44 969.439 191ZM1122.29 195.64C1061.04 195.64 1015.11 157.128 1015.11 98.2C1015.11 39.504 1061.04 0.759988 1122.29 0.759988C1183.08 0.759988 1229.24 39.504 1229.24 98.2C1229.24 157.128 1183.08 195.64 1122.29 195.64ZM1122.29 191.232C1168.92 191.232 1194.91 147.152 1194.91 98.2C1194.91 49.48 1168.92 5.16799 1122.29 5.16799C1075.2 5.16799 1049.44 49.48 1049.44 98.2C1049.44 147.152 1075.2 191.232 1122.29 191.232Z" fill="url(#paint2_linear_1234_3482)"/>
</g>
<defs>
<linearGradient id="paint0_linear_1234_3482" x1="1214.8" y1="370.714" x2="991.723" y2="358.455" gradientUnits="userSpaceOnUse">
<stop offset="0.0691454" stop-color="#81C430"/>
<stop offset="0.239323" stop-color="#ADF950"/>
<stop offset="0.852468" stop-color="#A0FF2B"/>
<stop offset="1" stop-color="#DCFD7C"/>
</linearGradient>
<linearGradient id="paint1_linear_1234_3482" x1="1250.5" y1="468.5" x2="752.436" y2="899.93" gradientUnits="userSpaceOnUse">
<stop offset="0.0691454" stop-color="#81C430"/>
<stop offset="0.239323" stop-color="#ADF950"/>
<stop offset="0.844566" stop-color="#A0FF2B"/>
<stop offset="1" stop-color="#DCFD7C"/>
</linearGradient>
<linearGradient id="paint2_linear_1234_3482" x1="-33" y1="-29" x2="1252" y2="247.5" gradientUnits="userSpaceOnUse">
<stop offset="0.0336538" stop-color="#E1FF89"/>
<stop offset="0.189818" stop-color="#B9FE63"/>
<stop offset="0.542946" stop-color="#AFFF4E"/>
<stop offset="0.916985" stop-color="#A5FF36"/>
<stop offset="1" stop-color="#5EA12E"/>
</linearGradient>
<clipPath id="clip0_1234_3482">
<rect width="1230" height="196" fill="white"/>
</clipPath>
</defs>
</svg>
