<svg fill="none" height="196" viewBox="0 0 1230 196" width="1230" xmlns="http://www.w3.org/2000/svg" xmlns:xlink="http://www.w3.org/1999/xlink"><linearGradient id="a" gradientUnits="userSpaceOnUse" x1="1214.8" x2="991.723" y1="370.714" y2="358.455"><stop offset=".0691454" stop-color="#81c430"/><stop offset=".239323" stop-color="#adf950"/><stop offset=".852468" stop-color="#a0ff2b"/><stop offset="1" stop-color="#dcfd7c"/></linearGradient><linearGradient id="b" gradientUnits="userSpaceOnUse" x1="1250.5" x2="752.436" y1="468.5" y2="899.93"><stop offset=".0691454" stop-color="#81c430"/><stop offset=".239323" stop-color="#adf950"/><stop offset=".844566" stop-color="#a0ff2b"/><stop offset="1" stop-color="#dcfd7c"/></linearGradient><linearGradient id="c" gradientUnits="userSpaceOnUse" x1="-33" x2="1252" y1="-29" y2="247.5"><stop offset=".0336538" stop-color="#e1ff89"/><stop offset=".189818" stop-color="#b9fe63"/><stop offset=".542946" stop-color="#afff4e"/><stop offset=".916985" stop-color="#a5ff36"/><stop offset="1" stop-color="#5ea12e"/></linearGradient><clipPath id="d"><path d="m0 0h1230v196h-1230z"/></clipPath><mask id="e" fill="#000" height="196" maskUnits="userSpaceOnUse" width="215" x="1015" y="1"><path d="m1015 1h215v196h-215z" fill="#fff"/><path d="m1122.14 195.621c-60.99 0-106.74-38.352-106.74-97.0343 0-58.4515 45.75-97.03405 106.74-97.03405 60.53 0 106.51 38.58255 106.51 97.03405 0 58.6823-45.98 97.0343-106.51 97.0343zm0-4.39c46.44 0 72.32-43.896 72.32-92.6443 0-48.517-25.88-92.64442-72.32-92.64442-46.9 0-72.54 44.12742-72.54 92.64442 0 48.7483 25.64 92.6443 72.54 92.6443z" fill="#000"/></mask><mask id="f" fill="#000" height="187" maskUnits="userSpaceOnUse" width="149" x="0" y="4"><path d="m0 4h149v187h-149z" fill="#fff"/><path d="m146.027 52.192v90.016c0 19.256.464 29.232 2.088 47.792h-35.96c1.624-18.56 2.088-28.536 2.088-47.792v-42.92h-79.5763v42.92c0 19.256.464 29.232 2.088 47.792h-35.960019c1.623999-18.56 2.087999-28.536 2.087999-47.792v-90.016c0-19.256-.464-29.232-2.087999-47.79201h35.960019c-1.624 18.56001-2.088 28.53601-2.088 47.79201v42.92h79.5763v-42.92c0-19.256-.464-29.232-2.088-47.79201h35.96c-1.624 18.56001-2.088 28.53601-2.088 47.79201z" fill="#000"/></mask><g clip-path="url(#d)"><path d="m1122.14 195.621c-60.99 0-106.74-38.352-106.74-97.0343 0-58.4515 45.75-97.03405 106.74-97.03405 60.53 0 106.51 38.58255 106.51 97.03405 0 58.6823-45.98 97.0343-106.51 97.0343zm0-4.39c46.44 0 72.32-43.896 72.32-92.6443 0-48.517-25.88-92.64442-72.32-92.64442-46.9 0-72.54 44.12742-72.54 92.64442 0 48.7483 25.64 92.6443 72.54 92.6443z" fill="url(#a)"/><path d="m1122.14 195.621v-.4c-30.41 0-57-9.562-75.97-26.411-18.98-16.845-30.37-40.993-30.37-70.2233h-.4-.4c0 29.4523 11.49 53.8203 30.64 70.8223 19.14 16.997 45.92 26.612 76.5 26.612zm-106.74-97.0343h.4c0-29.1145 11.39-53.2632 30.37-70.1374 18.97-16.8779 45.56-26.49665 75.97-26.49665v-.4-.4c-30.58 0-57.36 9.67245-76.5 26.69885-19.15 17.0299-30.64 41.3982-30.64 70.7352zm106.74-97.03405v.4c30.18 0 56.71 9.61845 75.69 26.49665 18.97 16.8746 30.42 41.0235 30.42 70.1374h.4.4c0-29.3376-11.54-53.7057-30.69-70.7352-19.14-17.026-45.87-26.69885-76.22-26.69885zm106.51 97.03405h-.4c0 29.2293-11.45 53.3783-30.42 70.2233-18.98 16.85-45.51 26.411-75.69 26.411v.4.4c30.35 0 57.08-9.615 76.22-26.612 19.15-17.001 30.69-41.37 30.69-70.8223zm-106.51 92.6443v.4c23.36 0 41.56-11.048 53.9-28.208 12.33-17.15 18.82-40.397 18.82-64.8363h-.4-.4c0 24.3093-6.46 47.3833-18.67 64.3693-12.21 16.975-30.17 27.875-53.25 27.875zm72.32-92.6443h.4c0-24.3238-6.49-47.5714-18.82-64.7494-12.34-17.1881-30.53-28.29502-53.9-28.29502v.4.4c23.08 0 41.04 10.95672 53.25 27.96162 12.21 17.0149 18.67 40.0896 18.67 64.2828zm-72.32-92.64442v-.4c-23.59 0-41.84 11.10592-54.18 28.29502-12.34 17.1785-18.76 40.4263-18.76 64.7494h.4.4c0-24.194 6.39-47.2684 18.61-64.2828 12.2-17.0038 30.23-27.96162 53.53-27.96162zm-72.54 92.64442h-.4c0 24.4383 6.42 47.6863 18.76 64.8363 12.34 17.161 30.59 28.208 54.18 28.208v-.4-.4c-23.31 0-41.33-10.901-53.53-27.875-12.22-16.985-18.61-40.06-18.61-64.3693z" fill="#f668b4" fill-opacity=".6" mask="url(#e)"/><path d="m146.027 52.192v90.016c0 19.256.464 29.232 2.088 47.792h-35.96c1.624-18.56 2.088-28.536 2.088-47.792v-42.92h-79.5763v42.92c0 19.256.464 29.232 2.088 47.792h-35.960019c1.623999-18.56 2.087999-28.536 2.087999-47.792v-90.016c0-19.256-.464-29.232-2.087999-47.79201h35.960019c-1.624 18.56001-2.088 28.53601-2.088 47.79201v42.92h79.5763v-42.92c0-19.256-.464-29.232-2.088-47.79201h35.96c-1.624 18.56001-2.088 28.53601-2.088 47.79201z" fill="url(#b)"/><path d="m148.115 190v.4h.436l-.038-.435zm-35.96 0-.399-.035-.038.435h.437zm2.088-90.712h.4v-.4h-.4zm-79.5763 0v-.4h-.4v.4zm2.088 90.712v.4h.4365l-.038-.435zm-35.960019 0-.398477-.035-.038051.435h.436528zm0-185.60001v-.4h-.436528l.038051.43486zm35.960019 0 .3985.03486.038-.43486h-.4365zm-2.088 90.71201h-.4v.4h.4zm79.5763 0v.4h.4v-.4zm-2.088-90.71201v-.4h-.437l.038.43486zm35.96 0 .398.03486.038-.43486h-.436zm-2.088 47.79201h-.4v90.016h.4.4v-90.016zm0 90.016h-.4c0 19.268.464 29.256 2.089 47.827l.399-.035.398-.035c-1.623-18.549-2.086-28.513-2.086-47.757zm2.088 47.792v-.4h-35.96v.4.4h35.96zm-35.96 0 .398.035c1.625-18.571 2.09-28.559 2.09-47.827h-.4-.4c0 19.244-.464 29.208-2.087 47.757zm2.088-47.792h.4v-42.92h-.4-.4v42.92zm0-42.92v-.4h-79.5763v.4.4h79.5763zm-79.5763 0h-.4v42.92h.4.4v-42.92zm0 42.92h-.4c0 19.268.4645 29.256 2.0895 47.827l.3985-.035.3985-.035c-1.623-18.549-2.0865-28.513-2.0865-47.757zm2.088 47.792v-.4h-35.960019v.4.4h35.960019zm-35.960019 0 .398479.035c1.62499-18.571 2.08952-28.559 2.08952-47.827h-.4-.4c0 19.244-.46347 29.208-2.086476 47.757zm2.087999-47.792h.4v-90.016h-.4-.4v90.016zm0-90.016h.4c0-19.2679-.46453-29.2556-2.08952-47.82688l-.398479.03487-.398477.03486c1.623006 18.54865 2.086476 28.51305 2.086476 47.75715zm-2.087999-47.79201v.4h35.960019v-.4-.4h-35.960019zm35.960019 0-.3985-.03487c-1.625 18.57128-2.0895 28.55898-2.0895 47.82688h.4.4c0-19.2441.4635-29.2085 2.0865-47.75715zm-2.088 47.79201h-.4v42.92h.4.4v-42.92zm0 42.92v.4h79.5763v-.4-.4h-79.5763zm79.5763 0h.4v-42.92h-.4-.4v42.92zm0-42.92h.4c0-19.2679-.465-29.2556-2.09-47.82688l-.398.03487-.399.03486c1.623 18.54865 2.087 28.51305 2.087 47.75715zm-2.088-47.79201v.4h35.96v-.4-.4h-35.96zm35.96 0-.399-.03487c-1.625 18.57128-2.089 28.55898-2.089 47.82688h.4.4c0-19.2441.463-29.2085 2.086-47.75715z" fill="#1385d6" fill-opacity=".6" mask="url(#f)"/><path d="m146.316 53.192v90.016c0 19.256.464 29.232 2.088 47.792h-35.96c1.624-18.56 2.088-28.536 2.088-47.792v-42.92h-79.5759v42.92c0 19.256.464 29.232 2.088 47.792h-35.95998c1.624-18.56 2.088-28.536 2.088-47.792v-90.016c0-19.256-.464-29.232-2.088-47.792h35.95998c-1.624 18.56-2.088 28.536-2.088 47.792v42.92h79.5759v-42.92c0-19.256-.464-29.232-2.088-47.792h35.96c-1.624 18.56-2.088 28.536-2.088 47.792zm61.469 137.808h-35.96c1.624-18.56 2.088-28.536 2.088-47.792v-90.016c0-19.256-.464-29.232-2.088-47.792h35.96c-1.624 18.56-2.088 28.536-2.088 47.792v90.016c0 19.256.464 29.232 2.088 47.792zm143.721-43.616c11.6 29.696 21.808 39.672 42.92 39.672v3.944c-41.528 0-64.032-7.656-75.632-41.992-12.76-37.12-24.36-43.848-47.328-43.848h-6.496v38.048c0 19.256.464 29.232 2.088 47.792h-35.96c1.624-18.56 2.088-28.536 2.088-47.792v-90.016c0-19.256-.464-29.232-2.088-47.792h50.576c43.152 0 80.968 8.816 80.968 49.88 0 35.032-27.608 46.632-62.408 49.184 21.576 3.944 39.904 14.848 51.272 42.92zm-86.536-137.576v90.944h16.472c25.288 0 48.952-9.28 48.952-45.472s-23.664-45.472-48.952-45.472zm226.327 185.832c-61.248 0-107.184-38.512-107.184-97.44 0-58.696 45.936-97.440012 107.184-97.440012 60.784 0 106.952 38.744012 106.952 97.440012 0 58.928-46.168 97.44-106.952 97.44zm0-4.408c46.632 0 72.616-44.08 72.616-93.032 0-48.72-25.984-93.03201-72.616-93.03201-47.096 0-72.848 44.31201-72.848 93.03201 0 48.952 25.752 93.032 72.848 93.032zm242.153-.232h-116.464c1.856-18.56 2.552-28.536 2.552-47.792v-90.016c0-19.256-.696-29.232-2.552-47.792h118.552l-12.064 16.008c-19.256-9.976-40.136-11.6-51.968-11.6h-20.416v80.968h13.688c12.296 0 24.824 0 46.4-2.32v9.048c-21.576-2.32-34.104-2.32-46.4-2.32h-13.688v91.408h22.968c23.664 0 38.512-1.392 67.048-11.136zm126.4 0h-35.96c1.624-18.56 2.088-28.536 2.088-47.792v-90.016c0-19.256-.464-29.232-2.088-47.792h35.96c-1.624 18.56-2.088 28.536-2.088 47.792v90.016c0 19.256.464 29.232 2.088 47.792zm109.589 0h-35.96c1.624-18.56 2.088-28.536 2.088-47.792v-133.4h-2.784c-11.832 0-28.536 1.624-48.024 11.6l-12.064-16.008h157.525l-12.06 16.008c-19.489-9.976-36.193-11.6-48.025-11.6h-2.784v133.4c0 19.256.464 29.232 2.088 47.792zm152.851 4.64c-61.25 0-107.18-38.512-107.18-97.44 0-58.696 45.93-97.440012 107.18-97.440012 60.79 0 106.95 38.744012 106.95 97.440012 0 58.928-46.16 97.44-106.95 97.44zm0-4.408c46.63 0 72.62-44.08 72.62-93.032 0-48.72-25.99-93.03201-72.62-93.03201-47.09 0-72.85 44.31201-72.85 93.03201 0 48.952 25.76 93.032 72.85 93.032z" fill="url(#c)"/></g></svg>